<svg xmlns="http://www.w3.org/2000/svg" viewBox="110 110 804 804">
  <style>
    .ring { fill: #282E31; }
    @media (prefers-color-scheme: dark) {
      .ring { fill: #FFFFFF; }
    }
  </style>
  <g class="ring">
    <circle cx="512.5" cy="162.4" r="38"/><circle cx="863.1" cy="512.2" r="38"/><circle cx="160.8" cy="512.2" r="38"/><circle cx="512.7" cy="862.4" r="38"/><circle cx="761.3" cy="263.3" r="38"/><circle cx="263.1" cy="761.1" r="38"/><circle cx="262.9" cy="263" r="38"/><circle cx="761.1" cy="761.3" r="38"/>
    <path d="M295.28 781.24l6.31-8.01c.85.26 29.18 20.76 32.37 22.84 36.95 24.11 78.4 40.48 121.85 48.13 7.28 1.29 16.19 2.85 23.52 3.39.07 3.07.58 7.05-.42 9.7-1.55 1.07-1.32.67-3.74.49-8.24-.72-18.53-2.63-26.66-4.19C401.12 845.03 356.27 826.07 316.97 798.27c-6.9-4.88-15.56-11.09-21.75-16.78l.06-.25Z"/>
    <path d="M472.01 157.71l.76.37c.44 2.16.25 7.82.23 10.31-10.55.84-22.36 3.3-32.78 5.45-50.02 10.32-105.85 35.03-143.99 69.42l-3.37-3.36-4.32-4.14c5.48-6.26 18.26-14.76 25.32-19.67 50.11-34.85 98.47-50.03 158.15-58.38Z"/>
    <path d="M551.59 157.88c9.77.51 27.54 3.89 37.08 5.92 43.72 9.3 83.19 26.13 120.21 51.13 8.04 5.43 20.57 13.94 27.13 20.97l-3.03 3.42c-1.07 1.33-2.37 2.69-3.53 3.97C683.77 206.43 627.79 180.26 569.67 170.99c-6.04-.97-12.14-1.79-18.21-2.62l.13-10.49Z"/>
    <path d="M235.87 289.86c2.83 2.72 4.33 4.15 7.48 6.41-8.26 10.64-15.97 20.58-23.44 31.94-21.66 33.26-37.26 70.1-46.05 108.81-1.78 7.78-3.25 15.63-4.41 23.53-.57 4.14-.74 9.22-1.6 13.13l-1.22.29-7.71.04c.2-7.31 1.83-18.44 2.99-25.7 8.79-55.15 37.29-117.15 74.97-158.45Z"/>
    <path d="M728.53 781.87l.69.06c1.46 1.03 4.78 5.68 6.03 7.33-8.01 7.59-20.09 15.8-29.27 21.86-44.22 29.53-94.79 48.19-147.59 54.47-2.13.35-4.79.59-6.98.85l-.06-10.77c55.48-5.49 108.95-26.33 155.06-57.33 7.46-5.02 14.81-11.09 22.12-16.47Z"/>
    <path d="M856.63 550.39l10.1.04c-.6 13.84-3.44 28.34-6.56 41.8-11.55 52.06-35.75 100.47-70.45 140.95l-.88.95c-2.27-.05-6.07-4.27-7.9-6l.05-.02c33.69-40.3 57.39-88.07 69.08-139.35 2.48-10.6 5.76-27.6 6.55-38.37Z"/>
    <path d="M157.63 550.55l10.24.06c8.78 67.1 32 125.19 75.78 177.5-1.17.87-2.11 1.74-3.21 2.69l-4.22 4.18c-7.31-7.99-15.97-19.8-22.05-28.73-31.62-46.33-51.06-99.88-56.54-155.7Z"/>
    <path d="M788.94 290c6.94 7.56 14.86 18.4 20.68 26.78 32.32 46.73 52.13 100.97 57.53 157.53-2.36-.02-4.9-.17-7.28-.25-1.05 0-2.64.18-2.82-.95-2.47-17.38-5.38-34.47-10-51.42-12.9-47.37-35.62-87.02-65.73-125.38l7.61-6.16-.01-.15Z"/>
  </g>
  <path fill="#1E904A" transform="translate(512,512) scale(1.2) translate(-512,-512)" d="M678.62 275.97c.81.56 1.63 1.11 2.45 1.66 9.48 88.55 11.17 178.29-27.72 260.81-31.59 67.04-88.94 123.9-165.47 132.09-24.9 2.74-50.09.2-73.95-7.42 8.55-23.19 22.66-41.21 45.44-51.76 12.45-5.77 26.67-8.46 40.35-7.95 16.4.6 30.72-1.87 46.42-6.42l-1.2-1.62c-13.36 1.41-28.69.71-42.01-1.21-97.5-14.04-123.03 90.09-122.35 167.83l-29.71-.13c.85-29.28 13.19-73.01 24.67-99.57 15.27-35.3 37.6-72.41 63.59-100.95 5.47-6.01 12.26-13.36 19-17.63 17.58-11.43 38.77-18.49 60.07-16.13 28.85 3.2 53.72 7.26 82.22-4.1l-.35-1.17c-16.02 2.7-35.84 1.38-51.93-1.45-24.63-4.33-38.91-9.89-64.24-4.63 22.68-22.1 52.55-46.38 77.81-65.88 25.17 5.73 58 1.42 81.53-8.57l-.43-.96c-23.1 5.53-48.1 4.07-71.55 2.03 39.15-32.86 65.18-59.89 87.9-105.6l-.6-1.15c-30.36 57.05-79.75 88.24-131.1 124.61.01-34.13 10.8-55.75 34.54-79.61l.37-.37-1-.85c-27.05 24.23-46.75 49.48-48.9 87.7-.09 1.83-.13 3.66-.13 5.49-24.96 18.83-48.12 37.95-68.79 61.49-2.16 2.46-4.61 5.14-6.87 7.49-5.08-35.09-1.56-54.88 17.89-85.44l-.7-1.03c-29.24 31.37-36.55 58.36-31.18 100.34-14.31 15.95-27.31 30.88-39.16 48.89-5.67 8.61-10.73 17.75-15.8 26.73-23.59-37.95-24.57-94.58-9-135.78 2.42-6.4 5.21-13.01 8.22-19.16 11.05-22.57 25.99-43 44.17-60.36 39.04-37.67 79.67-54.35 131.29-68.82 24.07-6.74 47.97-9.9 71.45-18.35 31.13-11.21 50.09-22.97 64.75-53.06Z"/>
</svg>
