<?xml version="1.0" encoding="utf-8"?>
<svg xmlns="http://www.w3.org/2000/svg" width="480" height="120" viewBox="0 0 480 120">
  <!-- White background -->
  <rect width="480" height="120" fill="white"/>
  
  <!-- Icon scaled down to fit 80x80, centered vertically -->
  <g transform="translate(20, 10) scale(0.0879)">
    <!-- Circle with nodes (dark gray) -->
    <path fill="#282E31" d="M508.142 135.752C522.861 133.328 536.766 143.272 539.23 157.985C541.695 172.698 531.789 186.63 517.083 189.134C502.32 191.649 488.321 181.696 485.848 166.926C483.374 152.156 493.365 138.185 508.142 135.752Z"/>
    <path fill="#282E31" d="M858.512 485.831C873.08 483.243 886.982 492.973 889.536 507.547C892.091 522.121 882.327 536 867.747 538.521C853.216 541.033 839.393 531.309 836.847 516.783C834.3 502.257 843.992 488.412 858.512 485.831Z"/>
    <path fill="#282E31" d="M157.218 485.697C171.913 483.639 185.473 493.942 187.429 508.651C189.386 523.36 178.99 536.848 164.268 538.703C149.689 540.54 136.359 530.267 134.422 515.701C132.485 501.134 142.666 487.735 157.218 485.697Z"/>
    <path fill="#282E31" d="M510.518 835.954C525.064 834.932 537.718 845.82 538.877 860.356C540.037 874.892 529.269 887.649 514.745 888.946C500.024 890.261 487.057 879.316 485.882 864.584C484.707 849.851 495.775 836.989 510.518 835.954Z"/>
    <path fill="#282E31" d="M755.89 237.44C770.194 234.394 784.248 243.556 787.234 257.873C790.22 272.189 781 286.205 766.672 289.132C752.427 292.042 738.51 282.887 735.541 268.655C732.573 254.422 741.669 240.467 755.89 237.44Z"/>
    <path fill="#282E31" d="M260.766 734.812C275.322 733.501 288.168 744.278 289.408 758.841C290.648 773.403 279.809 786.196 265.24 787.365C250.773 788.525 238.086 777.777 236.855 763.315C235.624 748.853 246.31 736.114 260.766 734.812Z"/>
    <path fill="#282E31" d="M260.654 236.738C275.084 235.576 287.747 246.279 289.005 260.701C290.262 275.123 279.644 287.857 265.23 289.21C250.68 290.576 237.801 279.836 236.531 265.277C235.261 250.719 246.087 237.911 260.654 236.738Z"/>
    <path fill="#282E31" d="M758.607 735.208C773.051 733.743 785.94 744.284 787.37 758.731C788.8 773.179 778.227 786.042 763.776 787.437C749.375 788.827 736.566 778.298 735.141 763.901C733.716 749.503 744.213 736.668 758.607 735.208Z"/>
    <!-- Circle ring -->
    <path fill="#282E31" d="M295.279 781.244C296.131 781.506 324.456 802.009 327.648 804.087C364.594 828.195 406.043 844.567 449.492 852.214C456.777 853.503 465.687 855.061 473.021 855.599C473.092 858.675 473.602 862.651 472.604 865.298C471.053 866.372 471.285 865.976 468.857 865.796C460.62 865.072 450.326 863.166 442.193 861.609C394.871 852.795 350.019 833.836 310.722 806.037C303.82 801.157 295.158 794.952 288.97 789.255L295.279 781.244Z"/>
    <path fill="#282E31" d="M472.012 157.708L472.775 158.077C473.214 160.234 473.022 165.9 473.004 168.387C462.453 169.23 450.64 171.687 440.226 173.836C390.205 184.161 334.379 208.866 296.202 243.255L292.869 239.891L288.553 235.756C294.032 229.497 306.809 220.994 313.868 216.085C363.982 181.231 412.343 166.054 472.012 157.708Z"/>
    <path fill="#282E31" d="M551.592 157.881C561.366 158.392 579.136 161.768 588.669 163.796C632.388 173.098 671.863 189.923 708.88 214.932C716.922 220.366 729.456 228.871 736.015 235.907L732.987 239.322C731.913 240.657 730.613 242.016 729.451 243.293C683.773 206.433 627.789 180.262 569.674 170.986C563.632 170.021 557.528 169.2 551.465 168.367L551.592 157.881Z"/>
    <path fill="#282E31" d="M235.872 289.858C238.697 292.577 240.198 294.005 243.353 296.266C235.097 306.911 227.383 316.849 219.909 328.206C198.247 361.471 182.656 398.314 173.86 437.023C172.085 444.804 170.614 452.652 169.45 460.548C168.88 464.693 168.711 469.77 167.848 473.683L166.625 473.968L157.912 474.007C158.109 466.697 159.741 455.572 160.899 448.308C169.69 393.159 198.192 331.162 235.872 289.858Z"/>
    <path fill="#282E31" d="M728.53 781.87L729.218 781.932C730.68 782.958 733.999 787.612 735.253 789.265C727.239 796.852 715.161 805.068 705.977 811.125C661.756 840.652 611.185 859.314 558.383 865.592C556.255 865.94 553.592 866.184 551.408 866.447L551.346 855.676C606.829 850.187 660.293 829.351 706.41 798.344C713.869 793.329 721.222 787.254 728.53 781.87Z"/>
    <path fill="#282E31" d="M856.627 550.393L866.724 550.429C866.122 564.267 863.286 578.767 860.167 592.23C848.617 644.288 824.418 692.699 789.712 733.183L788.83 734.129C786.56 734.084 782.761 729.867 780.933 728.134C814.687 687.802 838.386 640.034 850.08 588.757C852.557 578.159 855.842 561.159 856.627 550.393Z"/>
    <path fill="#282E31" d="M157.628 550.551L167.864 550.614C176.644 617.716 199.851 675.801 243.641 728.116C242.466 728.98 241.528 729.848 240.435 730.806L236.215 734.988C228.903 727.002 220.239 715.188 214.168 706.256C182.548 659.924 163.104 606.376 157.628 550.551Z"/>
    <path fill="#282E31" d="M788.942 290.003C795.885 297.564 803.799 308.396 809.622 316.782C841.945 363.513 861.754 417.747 867.156 474.31C864.795 474.293 862.252 474.147 859.876 474.057C858.828 474.055 857.242 474.235 857.063 472.971C854.594 455.595 851.681 438.502 847.067 421.554C834.168 374.18 811.445 334.533 781.337 296.16L788.942 290.003Z"/>
    <!-- Green leaf -->
    <path fill="#0A904E" d="M678.619 275.969C679.43 276.529 680.247 277.081 681.069 277.626C690.549 366.174 692.241 455.912 653.348 538.437C621.754 605.476 564.411 662.332 487.873 670.528C462.976 673.266 437.782 670.733 413.928 663.095C422.48 639.902 436.582 621.882 459.368 611.328C471.816 605.563 486.041 602.872 499.716 603.375C516.115 603.978 530.44 601.511 546.141 596.96L544.937 595.339C531.575 596.744 516.246 596.051 502.93 594.133C405.434 580.09 379.957 684.219 380.588 761.959L350.874 761.828C351.722 732.551 364.06 688.82 375.545 662.261C390.812 626.958 413.143 589.852 439.138 561.305C444.611 555.295 451.396 547.947 458.137 543.677C475.722 532.25 496.907 525.186 518.202 527.546C547.06 530.745 571.922 534.805 600.422 523.446L600.077 522.273C584.062 524.973 564.24 523.655 548.147 520.826C523.514 516.496 509.239 510.939 483.906 516.196C506.588 494.099 536.456 469.814 561.712 450.319C586.89 456.048 619.691 451.734 643.242 441.746L642.816 440.784C619.718 446.312 594.715 444.853 571.263 442.816C610.418 409.958 636.443 382.921 659.161 337.211L658.561 336.06C628.203 393.113 578.808 424.303 527.466 460.671C527.477 426.537 538.268 404.916 562.009 381.057L562.38 380.687L561.382 379.841C534.329 404.072 514.63 429.322 512.478 467.537C512.387 469.365 512.343 471.195 512.345 473.026C487.387 491.859 464.225 510.973 443.558 534.518C441.401 536.975 438.949 539.659 436.683 542.005C431.605 506.911 435.124 487.122 454.571 456.562L453.868 455.528C424.635 486.904 417.322 513.89 422.687 555.866C408.374 571.816 395.381 586.746 383.53 604.758C377.864 613.37 372.803 622.51 367.733 631.492C344.146 593.538 343.166 536.913 358.74 495.716C361.16 489.314 363.949 482.704 366.955 476.555C378.004 453.988 392.957 433.553 411.123 416.193C450.167 378.521 490.8 361.844 542.414 347.377C566.482 340.63 590.387 337.477 613.867 329.025C644.999 317.818 663.959 306.059 678.619 275.969Z"/>
    <path fill="#2D8D5F" d="M678.619 275.969C678.955 275.123 679.662 272.893 680.346 272.357L680.373 272.396L679.996 272.931L680.204 272.685L680.759 273.145C680.822 274.641 680.998 276.128 681.069 277.626C680.247 277.081 679.43 276.529 678.619 275.969Z"/>
  </g>
  
  <!-- Typography: Tuinhub -->
  <text x="118" y="55" font-family="'Inter', 'Segoe UI', 'Helvetica Neue', Arial, sans-serif" font-size="38" font-weight="600" fill="#282E31" letter-spacing="-0.5">Tuinhub</text>
  
  <!-- Typography: .nl (smaller, lighter) -->
  <text x="308" y="55" font-family="'Inter', 'Segoe UI', 'Helvetica Neue', Arial, sans-serif" font-size="38" font-weight="400" fill="#6B7280" letter-spacing="-0.5">.nl</text>
  
  <!-- Tagline -->
  <text x="120" y="80" font-family="'Inter', 'Segoe UI', 'Helvetica Neue', Arial, sans-serif" font-size="13" font-weight="400" fill="#9CA3AF" letter-spacing="2">ALLES VOOR JOUW TUIN</text>
</svg>
